<?xml version="1.0" encoding="UTF-8" standalone="no"?>
<svg
   xmlns:dc="http://purl.org/dc/elements/1.1/"
   xmlns:cc="http://creativecommons.org/ns#"
   xmlns:rdf="http://www.w3.org/1999/02/22-rdf-syntax-ns#"
   xmlns:svg="http://www.w3.org/2000/svg"
   xmlns="http://www.w3.org/2000/svg"
   xmlns:sodipodi="http://sodipodi.sourceforge.net/DTD/sodipodi-0.dtd"
   xmlns:inkscape="http://www.inkscape.org/namespaces/inkscape"
   version="1.1"
   data-original-aspect-ratio="1.2442745192958409"
   width="50px"
   height="41px"
   id="svg3336"
   inkscape:version="0.91 r13725"
   sodipodi:docname="rings.svg">
  <metadata
     id="metadata3348">
    <rdf:RDF>
      <cc:Work
         rdf:about="">
        <dc:format>image/svg+xml</dc:format>
        <dc:type
           rdf:resource="http://purl.org/dc/dcmitype/StillImage" />
        <dc:title></dc:title>
      </cc:Work>
    </rdf:RDF>
  </metadata>
  <defs
     id="defs3346" />
  <sodipodi:namedview
     pagecolor="#ffffff"
     bordercolor="#666666"
     borderopacity="1"
     objecttolerance="10"
     gridtolerance="10"
     guidetolerance="10"
     inkscape:pageopacity="0"
     inkscape:pageshadow="2"
     inkscape:window-width="1600"
     inkscape:window-height="823"
     id="namedview3344"
     showgrid="true"
     inkscape:zoom="10.865299"
     inkscape:cx="15.366231"
     inkscape:cy="20.023135"
     inkscape:window-x="-9"
     inkscape:window-y="-9"
     inkscape:window-maximized="1"
     inkscape:current-layer="g3338">
    <inkscape:grid
       type="xygrid"
       id="grid3350" />
  </sodipodi:namedview>
  <g
     transform="translate(24.999988555908203,-41.104312896728516)"
     id="g3338">
    <path
       d="M12.269933 50.73622l5.153371 -5.398776L14.478521 41.104314l-8.31288 0.06135L2.66871 45.42947L7.791407 50.613521c-2.60736 0.306749,-4.999997 1.25767,-7.024536 2.699387c0.736195 0.613497,1.411043 1.288345,2.055214 2.08589c1.963189 -1.25767,4.263802 -2.024541,6.779138 -2.024541c6.901837 0,12.51533 5.613499,12.51533 12.515343s-5.613493 12.515343,-12.51533 12.515343s-12.51533 -5.613499,-12.51533 -12.515343c0 -2.668713,0.858895 -5.153376,2.269938 -7.177917c-0.582821 -0.797547,-1.288344 -1.472393,-2.055214 -2.055216c-1.932514 2.576688,-3.098158 5.766874,-3.098158 9.233133c0 8.496937,6.901837 15.398781,15.398766 15.398781s15.398766 -6.901844,15.398766 -15.398781C24.999987 58.312912,19.478518 51.99389,12.269933 50.73622zM7.515333 45.920268l1.625765 4.386505l-4.355827 -4.386505H7.515333zM15.276066 45.920268l-4.049078 4.23313l1.564416 -4.23313H15.276066zM11.564411 45.920268l-1.411043 3.803683l-1.411043 -3.803683H11.564411zM8.619627 44.754623l0.582821 -2.453989l1.963189 0l0.552146 2.484664H8.619627zM15.613488 44.754623h-2.699384l-0.552146 -2.484664l1.503066 0L15.613488 44.754623zM6.717787 42.300634l1.319018 0l-0.582821 2.453989h-2.730059L6.717787 42.300634z"
       id="path3340"
       style="fill:#685b52;fill-opacity:1" />
    <path
       d="m -2.6837737,76.424541 c -0.060798,-0.09119 -0.1215956,0.0304 -0.6687774,0.364788 -1.7631408,1.003167 -3.8910695,1.641547 -6.1405949,1.641547 -6.839771,0 -12.402784,-5.563019 -12.402784,-12.402798 0,-6.839778 5.593413,-12.402798 12.4331842,-12.402798 6.8397714,0 12.4027844,5.563019 12.4027844,12.402797 0,2.644715 -0.8511713,5.137433 -2.27992446,7.143768 l -0.0303992,0.03039 c 0.75997481,1.063966 2.09752951,1.975936 2.12792871,1.945537 1.9151356,-2.553517 3.0398983,-5.715015 3.0398983,-9.119704 0,-7.812547 -5.89740268,-14.257137 -13.4363506,-15.138709 -2.8130064,-0.05119 -2.7175404,-0.04816 -4.5427584,0.127298 -7.143761,1.24636 -12.541471,7.502857 -12.541471,15.011412 0,8.420528 6.839772,15.260306 15.2602912,15.260306 2.1583278,0 4.3166567,-0.455985 6.2925906,-1.367956 0.5167826,-0.243191 1.0031661,-0.516783 1.4895495,-0.790375 0.79037402,-0.455985 0.97276794,-0.699176 0.91196964,-0.699176 C -1.4678136,77.883688 -2.1061928,77.154111 -2.6837737,76.424541 Z"
       id="path3342"
       inkscape:connector-curvature="0"
       sodipodi:nodetypes="ccsssscccsccsscccc"
       style="fill:#072b4b;fill-opacity:1" />
  </g>
</svg>
