<?xml version="1.0" encoding="UTF-8" standalone="no"?>
<svg
   xmlns:dc="http://purl.org/dc/elements/1.1/"
   xmlns:cc="http://creativecommons.org/ns#"
   xmlns:rdf="http://www.w3.org/1999/02/22-rdf-syntax-ns#"
   xmlns:svg="http://www.w3.org/2000/svg"
   xmlns="http://www.w3.org/2000/svg"
   xmlns:sodipodi="http://sodipodi.sourceforge.net/DTD/sodipodi-0.dtd"
   xmlns:inkscape="http://www.inkscape.org/namespaces/inkscape"
   version="1.1"
   data-original-aspect-ratio="1.2442745192958409"
   width="50px"
   height="41px"
   id="svg3336"
   inkscape:version="0.91 r13725"
   sodipodi:docname="rings.svg">
  <metadata
     id="metadata3348">
    <rdf:RDF>
      <cc:Work
         rdf:about="">
        <dc:format>image/svg+xml</dc:format>
        <dc:type
           rdf:resource="http://purl.org/dc/dcmitype/StillImage" />
        <dc:title />
      </cc:Work>
    </rdf:RDF>
  </metadata>
  <defs
     id="defs3346" />
  <sodipodi:namedview
     pagecolor="#ffffff"
     bordercolor="#666666"
     borderopacity="1"
     objecttolerance="10"
     gridtolerance="10"
     guidetolerance="10"
     inkscape:pageopacity="0"
     inkscape:pageshadow="2"
     inkscape:window-width="1600"
     inkscape:window-height="823"
     id="namedview3344"
     showgrid="true"
     inkscape:zoom="10.865299"
     inkscape:cx="1.4687764"
     inkscape:cy="20.023135"
     inkscape:window-x="-9"
     inkscape:window-y="-9"
     inkscape:window-maximized="1"
     inkscape:current-layer="g3338">
    <inkscape:grid
       type="xygrid"
       id="grid3350" />
  </sodipodi:namedview>
  <g
     transform="translate(24.999988555908203,-41.104312896728516)"
     id="g3338">
    <path
       d="m -11.99298,50.73622 -5.153371,-5.398776 2.944783,-4.23313 8.31288,0.06135 3.496931,4.263806 -5.122697,5.184051 c 2.60736,0.306749 4.999997,1.25767 7.02453595,2.699387 -0.73619495,0.613497 -1.41104295,1.288345 -2.05521395,2.08589 -1.963189,-1.25767 -4.263802,-2.024541 -6.779138,-2.024541 -6.901837,0 -12.51533,5.613499 -12.51533,12.515343 0,6.901844 5.613493,12.515343 12.51533,12.515343 6.901837,0 12.51533,-5.613499 12.51533,-12.515343 0,-2.668713 -0.858895,-5.153376 -2.26993805,-7.177917 C 1.503943,57.914136 2.209466,57.23929 2.976336,56.656467 c 1.932514,2.576688 3.098158,5.766874 3.098158,9.233133 0,8.496937 -6.90183705,15.398781 -15.398766,15.398781 -8.496929,0 -15.398766,-6.901844 -15.398766,-15.398781 4e-6,-7.576688 5.521473,-13.89571 12.730058,-15.15338 z m 4.7546,-4.815952 -1.625765,4.386505 4.355827,-4.386505 -2.730062,0 z m -7.760733,0 4.049078,4.23313 -1.564416,-4.23313 -2.484662,0 z m 3.711655,0 1.411043,3.803683 1.411043,-3.803683 -2.822086,0 z m 2.944784,-1.165645 -0.582821,-2.453989 -1.963189,0 -0.552146,2.484664 3.098156,0 z m -6.993861,0 2.699384,0 0.552146,-2.484664 -1.503066,0 -1.748464,2.484664 z m 8.895701,-2.453989 -1.319018,0 0.582821,2.453989 2.730059,0 -1.993862,-2.453989 z"
       id="path3340"
       style="fill:#685b52;fill-opacity:1"
       inkscape:connector-curvature="0" />
    <path
       d="m 2.9607267,76.424541 c 0.060798,-0.09119 0.1215956,0.0304 0.6687774,0.364788 1.7631408,1.003167 3.8910695,1.641547 6.1405949,1.641547 6.839771,0 12.402784,-5.563019 12.402784,-12.402798 0,-6.839778 -5.593413,-12.402798 -12.4331842,-12.402798 -6.8397714,0 -12.4027844,5.563019 -12.4027844,12.402797 0,2.644715 0.8511713,5.137433 2.27992441,7.143768 l 0.0303992,0.03039 c -0.75997481,1.063966 -2.09752951,1.975936 -2.12792871,1.945537 -1.9151356,-2.553517 -3.0398983,-5.715015 -3.0398983,-9.119704 0,-7.812547 5.89740268,-14.257137 13.4363506,-15.138709 2.8130064,-0.05119 2.7175404,-0.04816 4.5427584,0.127298 7.143761,1.24636 12.541471,7.502857 12.541471,15.011412 0,8.420528 -6.839772,15.260306 -15.2602912,15.260306 -2.1583278,0 -4.3166567,-0.455985 -6.2925906,-1.367956 C 2.9303266,79.677228 2.4439431,79.403636 1.9575597,79.130044 1.1671857,78.674059 0.98479176,78.430868 1.0455901,78.430868 1.7447666,77.883688 2.3831458,77.154111 2.9607267,76.424541 Z"
       id="path3342"
       inkscape:connector-curvature="0"
       sodipodi:nodetypes="ccsssscccsccsscccc"
       style="fill:#072b4b;fill-opacity:1" />
  </g>
</svg>
