<svg version="1.1" xmlns="http://www.w3.org/2000/svg" data-original-aspect-ratio="1.2442745192958409" width="50px" height="41px"><g transform="translate(24.999988555908203,-41.104312896728516)"><path d="M12.269933 50.73622l5.153371 -5.398776L14.478521 41.104314l-8.31288 0.06135L2.66871 45.42947L7.791407 50.613521c-2.60736 0.306749,-4.999997 1.25767,-7.024536 2.699387c0.736195 0.613497,1.411043 1.288345,2.055214 2.08589c1.963189 -1.25767,4.263802 -2.024541,6.779138 -2.024541c6.901837 0,12.51533 5.613499,12.51533 12.515343s-5.613493 12.515343,-12.51533 12.515343s-12.51533 -5.613499,-12.51533 -12.515343c0 -2.668713,0.858895 -5.153376,2.269938 -7.177917c-0.582821 -0.797547,-1.288344 -1.472393,-2.055214 -2.055216c-1.932514 2.576688,-3.098158 5.766874,-3.098158 9.233133c0 8.496937,6.901837 15.398781,15.398766 15.398781s15.398766 -6.901844,15.398766 -15.398781C24.999987 58.312912,19.478518 51.99389,12.269933 50.73622zM7.515333 45.920268l1.625765 4.386505l-4.355827 -4.386505H7.515333zM15.276066 45.920268l-4.049078 4.23313l1.564416 -4.23313H15.276066zM11.564411 45.920268l-1.411043 3.803683l-1.411043 -3.803683H11.564411zM8.619627 44.754623l0.582821 -2.453989l1.963189 0l0.552146 2.484664H8.619627zM15.613488 44.754623h-2.699384l-0.552146 -2.484664l1.503066 0L15.613488 44.754623zM6.717787 42.300634l1.319018 0l-0.582821 2.453989h-2.730059L6.717787 42.300634z"></path><path d="M-2.760735 76.380405c-0.06135 -0.092024,-0.122699 0.030675,-0.674846 0.368099c-1.77914 1.01227,-3.926378 1.656442,-6.196316 1.656442c-6.901837 0,-12.51533 -5.613499,-12.51533 -12.515343S-16.503058 53.374259,-9.601221 53.374259s12.51533 5.613499,12.51533 12.515343c0 2.668713,-0.858895 5.184051,-2.300613 7.208592c0 0,-0.030675 0.030675,-0.030675 0.030675c0.766871 1.07362,2.116563 1.993866,2.147238 1.963191c1.932514 -2.576688,3.067483 -5.766874,3.067483 -9.202458c0 -7.88344,-5.950917 -14.38651,-13.558275 -15.276081L-2.760735 45.337445l-2.975459 -4.23313l-8.31288 0.06135l-3.466256 4.263806l5.245396 5.306751c-7.208585 1.25767,-12.730054 7.576691,-12.730054 15.153381c0 8.496937,6.901837 15.398781,15.398766 15.398781c2.177913 0,4.355827 -0.460123,6.349691 -1.380369c0.521472 -0.245398,1.012269 -0.521473,1.503066 -0.797547c0.797546 -0.460123,0.981595 -0.705521,0.920245 -0.705521C-1.533741 77.852798,-2.177913 77.116601,-2.760735 76.380405zM-12.668704 45.920268L-11.042939 50.306773l-4.355827 -4.386505H-12.668704zM-4.907973 45.920268l-4.049078 4.23313l1.564416 -4.23313H-4.907973zM-8.619627 45.920268l-1.411043 3.803683l-1.411043 -3.803683H-8.619627zM-11.564411 44.754623l0.582821 -2.453989l1.963189 0l0.552146 2.484664H-11.564411zM-4.570549 44.754623h-2.699384l-0.552146 -2.484664l1.503066 0L-4.570549 44.754623zM-13.496926 42.300634l1.319018 0l-0.582821 2.453989h-2.730059L-13.496926 42.300634z"></path></g></svg>
